# xmcd
#
# Track frame offsets: 
#        150
#        17566
#        34548
#        49919
#        68915
#        83575
#        101762
#        119099
#        134953
#        154099
#        168144
#        189059
#        205128
#        223821
#
# Disc length: 3180 seconds
#
# Revision: 0
# Processed by: cddbd v1.5.2PL0 Copyright (c) Steve Scherf et al.
# Submitted via: ExactAudioCopyFreeDBPlugin 1.0
#
DISCID=c20c6a0e
DTITLE=Shy'm - A nos dix ans
DYEAR=2015
DGENRE=Variété française
TTITLE0=Rêves d'enfants
TTITLE1=Nulle part ailleurs
TTITLE2=Caméléon
TTITLE3=Le blues de toi
TTITLE4=Tout est dit
TTITLE5=Ta Lady
TTITLE6=En apesanteur
TTITLE7=En plein cœur
TTITLE8=Comment tu vas?
TTITLE9=Je prends sur moi
TTITLE10=Comme un oiseau
TTITLE11=Veiller tard (Génération Goldman)
TTITLE12=Elle
TTITLE13=Je rêve
EXTD=
EXTT0=
EXTT1=
EXTT2=
EXTT3=
EXTT4=
EXTT5=
EXTT6=
EXTT7=
EXTT8=
EXTT9=
EXTT10=
EXTT11=
EXTT12=
EXTT13=
PLAYORDER=
